<mxfile host="app.diagrams.net" modified="2024-01-18T08:00:15.546Z" agent="Mozilla/5.0 (Windows NT 10.0; Win64; x64) AppleWebKit/537.36 (KHTML, like Gecko) Chrome/120.0.0.0 Safari/537.36" etag="4sxCgJUDTr4sdqR-HE9d" version="22.1.18" type="github">
  <diagram id="C5RBs43oDa-KdzZeNtuy" name="Page-1">
    <mxGraphModel dx="1232" dy="540" grid="1" gridSize="10" guides="1" tooltips="1" connect="1" arrows="1" fold="1" page="1" pageScale="1" pageWidth="827" pageHeight="1169" math="0" shadow="0">
      <root>
        <mxCell id="WIyWlLk6GJQsqaUBKTNV-0" />
        <mxCell id="WIyWlLk6GJQsqaUBKTNV-1" parent="WIyWlLk6GJQsqaUBKTNV-0" />
        <mxCell id="DJIE9ovX9oFqi-QRtO37-21" style="edgeStyle=orthogonalEdgeStyle;rounded=0;orthogonalLoop=1;jettySize=auto;html=1;exitX=1;exitY=0.5;exitDx=0;exitDy=0;entryX=0;entryY=0.5;entryDx=0;entryDy=0;" edge="1" parent="WIyWlLk6GJQsqaUBKTNV-1" source="DJIE9ovX9oFqi-QRtO37-0" target="DJIE9ovX9oFqi-QRtO37-2">
          <mxGeometry relative="1" as="geometry">
            <Array as="points">
              <mxPoint x="170" y="220" />
              <mxPoint x="170" y="110" />
            </Array>
          </mxGeometry>
        </mxCell>
        <mxCell id="DJIE9ovX9oFqi-QRtO37-25" style="edgeStyle=orthogonalEdgeStyle;rounded=0;orthogonalLoop=1;jettySize=auto;html=1;exitX=1;exitY=0.5;exitDx=0;exitDy=0;entryX=0;entryY=0.5;entryDx=0;entryDy=0;" edge="1" parent="WIyWlLk6GJQsqaUBKTNV-1" source="DJIE9ovX9oFqi-QRtO37-0" target="DJIE9ovX9oFqi-QRtO37-5">
          <mxGeometry relative="1" as="geometry" />
        </mxCell>
        <mxCell id="DJIE9ovX9oFqi-QRtO37-26" style="edgeStyle=orthogonalEdgeStyle;rounded=0;orthogonalLoop=1;jettySize=auto;html=1;exitX=1;exitY=0.5;exitDx=0;exitDy=0;entryX=0;entryY=0.5;entryDx=0;entryDy=0;" edge="1" parent="WIyWlLk6GJQsqaUBKTNV-1" source="DJIE9ovX9oFqi-QRtO37-0" target="DJIE9ovX9oFqi-QRtO37-13">
          <mxGeometry relative="1" as="geometry">
            <Array as="points">
              <mxPoint x="170" y="220" />
              <mxPoint x="170" y="333" />
            </Array>
          </mxGeometry>
        </mxCell>
        <mxCell id="DJIE9ovX9oFqi-QRtO37-0" value="휠체어 탑재&lt;br&gt;카메라 및 모델" style="rounded=0;whiteSpace=wrap;html=1;" vertex="1" parent="WIyWlLk6GJQsqaUBKTNV-1">
          <mxGeometry x="30" y="190" width="120" height="60" as="geometry" />
        </mxCell>
        <mxCell id="DJIE9ovX9oFqi-QRtO37-1" value="회피 기동 보조" style="rounded=0;whiteSpace=wrap;html=1;" vertex="1" parent="WIyWlLk6GJQsqaUBKTNV-1">
          <mxGeometry x="200" y="50" width="120" height="30" as="geometry" />
        </mxCell>
        <mxCell id="DJIE9ovX9oFqi-QRtO37-37" style="edgeStyle=orthogonalEdgeStyle;rounded=0;orthogonalLoop=1;jettySize=auto;html=1;exitX=1;exitY=0.5;exitDx=0;exitDy=0;" edge="1" parent="WIyWlLk6GJQsqaUBKTNV-1" source="DJIE9ovX9oFqi-QRtO37-2" target="DJIE9ovX9oFqi-QRtO37-3">
          <mxGeometry relative="1" as="geometry" />
        </mxCell>
        <mxCell id="DJIE9ovX9oFqi-QRtO37-2" value="갑작스런 사람 출현&lt;br&gt;전측방 접근 자동차" style="rounded=0;whiteSpace=wrap;html=1;" vertex="1" parent="WIyWlLk6GJQsqaUBKTNV-1">
          <mxGeometry x="200" y="80" width="120" height="60" as="geometry" />
        </mxCell>
        <mxCell id="DJIE9ovX9oFqi-QRtO37-3" value="휠체어 정지" style="rounded=0;whiteSpace=wrap;html=1;" vertex="1" parent="WIyWlLk6GJQsqaUBKTNV-1">
          <mxGeometry x="334" y="80" width="120" height="60" as="geometry" />
        </mxCell>
        <mxCell id="DJIE9ovX9oFqi-QRtO37-4" value="장애물 인식" style="rounded=0;whiteSpace=wrap;html=1;" vertex="1" parent="WIyWlLk6GJQsqaUBKTNV-1">
          <mxGeometry x="200" y="160" width="120" height="30" as="geometry" />
        </mxCell>
        <mxCell id="DJIE9ovX9oFqi-QRtO37-36" style="edgeStyle=orthogonalEdgeStyle;rounded=0;orthogonalLoop=1;jettySize=auto;html=1;exitX=1;exitY=0.5;exitDx=0;exitDy=0;entryX=0;entryY=0.5;entryDx=0;entryDy=0;" edge="1" parent="WIyWlLk6GJQsqaUBKTNV-1" source="DJIE9ovX9oFqi-QRtO37-5" target="DJIE9ovX9oFqi-QRtO37-27">
          <mxGeometry relative="1" as="geometry" />
        </mxCell>
        <mxCell id="DJIE9ovX9oFqi-QRtO37-5" value="포트홀,&lt;br&gt;공사 현장,&lt;br&gt;장애물" style="rounded=0;whiteSpace=wrap;html=1;" vertex="1" parent="WIyWlLk6GJQsqaUBKTNV-1">
          <mxGeometry x="200" y="190" width="120" height="60" as="geometry" />
        </mxCell>
        <mxCell id="DJIE9ovX9oFqi-QRtO37-46" style="edgeStyle=orthogonalEdgeStyle;rounded=0;orthogonalLoop=1;jettySize=auto;html=1;exitX=0;exitY=0.5;exitDx=0;exitDy=0;entryX=1;entryY=0.5;entryDx=0;entryDy=0;" edge="1" parent="WIyWlLk6GJQsqaUBKTNV-1" source="DJIE9ovX9oFqi-QRtO37-6" target="DJIE9ovX9oFqi-QRtO37-7">
          <mxGeometry relative="1" as="geometry" />
        </mxCell>
        <mxCell id="DJIE9ovX9oFqi-QRtO37-6" value="공간 정보&lt;br&gt;데이터 베이스" style="rounded=0;whiteSpace=wrap;html=1;" vertex="1" parent="WIyWlLk6GJQsqaUBKTNV-1">
          <mxGeometry x="400" y="413" width="120" height="60" as="geometry" />
        </mxCell>
        <mxCell id="DJIE9ovX9oFqi-QRtO37-7" value="휠체어 경로 최적화" style="rounded=0;whiteSpace=wrap;html=1;" vertex="1" parent="WIyWlLk6GJQsqaUBKTNV-1">
          <mxGeometry x="200" y="413" width="120" height="60" as="geometry" />
        </mxCell>
        <mxCell id="DJIE9ovX9oFqi-QRtO37-9" value="다잌스트라 알고리즘" style="rounded=0;whiteSpace=wrap;html=1;" vertex="1" parent="WIyWlLk6GJQsqaUBKTNV-1">
          <mxGeometry x="200" y="383" width="120" height="30" as="geometry" />
        </mxCell>
        <mxCell id="DJIE9ovX9oFqi-QRtO37-49" style="edgeStyle=orthogonalEdgeStyle;rounded=0;orthogonalLoop=1;jettySize=auto;html=1;exitX=0;exitY=0.5;exitDx=0;exitDy=0;entryX=1;entryY=0.5;entryDx=0;entryDy=0;" edge="1" parent="WIyWlLk6GJQsqaUBKTNV-1" source="DJIE9ovX9oFqi-QRtO37-10" target="DJIE9ovX9oFqi-QRtO37-6">
          <mxGeometry relative="1" as="geometry" />
        </mxCell>
        <mxCell id="DJIE9ovX9oFqi-QRtO37-10" value="노면 상태, 포트홀,&lt;br&gt;장애물, 경사도" style="rounded=0;whiteSpace=wrap;html=1;" vertex="1" parent="WIyWlLk6GJQsqaUBKTNV-1">
          <mxGeometry x="540" y="413" width="120" height="60" as="geometry" />
        </mxCell>
        <mxCell id="DJIE9ovX9oFqi-QRtO37-11" value="YOLOv8" style="rounded=0;whiteSpace=wrap;html=1;" vertex="1" parent="WIyWlLk6GJQsqaUBKTNV-1">
          <mxGeometry x="30" y="160" width="120" height="30" as="geometry" />
        </mxCell>
        <mxCell id="DJIE9ovX9oFqi-QRtO37-12" value="사용자 행동 데이터" style="rounded=0;whiteSpace=wrap;html=1;" vertex="1" parent="WIyWlLk6GJQsqaUBKTNV-1">
          <mxGeometry x="200" y="270" width="120" height="33" as="geometry" />
        </mxCell>
        <mxCell id="DJIE9ovX9oFqi-QRtO37-33" style="edgeStyle=orthogonalEdgeStyle;rounded=0;orthogonalLoop=1;jettySize=auto;html=1;exitX=1;exitY=0.5;exitDx=0;exitDy=0;entryX=0;entryY=0.5;entryDx=0;entryDy=0;" edge="1" parent="WIyWlLk6GJQsqaUBKTNV-1" source="DJIE9ovX9oFqi-QRtO37-13" target="DJIE9ovX9oFqi-QRtO37-28">
          <mxGeometry relative="1" as="geometry" />
        </mxCell>
        <mxCell id="DJIE9ovX9oFqi-QRtO37-13" value="경로 이탈 시,&lt;br&gt;장애물 존재 판단" style="rounded=0;whiteSpace=wrap;html=1;" vertex="1" parent="WIyWlLk6GJQsqaUBKTNV-1">
          <mxGeometry x="200" y="303" width="120" height="60" as="geometry" />
        </mxCell>
        <mxCell id="DJIE9ovX9oFqi-QRtO37-14" value="예상 소요 시간" style="rounded=0;whiteSpace=wrap;html=1;" vertex="1" parent="WIyWlLk6GJQsqaUBKTNV-1">
          <mxGeometry x="200" y="525" width="120" height="60" as="geometry" />
        </mxCell>
        <mxCell id="DJIE9ovX9oFqi-QRtO37-15" value="Gradient Boosting Tree" style="rounded=0;whiteSpace=wrap;html=1;" vertex="1" parent="WIyWlLk6GJQsqaUBKTNV-1">
          <mxGeometry x="200" y="495" width="120" height="30" as="geometry" />
        </mxCell>
        <mxCell id="DJIE9ovX9oFqi-QRtO37-51" style="edgeStyle=orthogonalEdgeStyle;rounded=0;orthogonalLoop=1;jettySize=auto;html=1;exitX=0;exitY=0.5;exitDx=0;exitDy=0;entryX=1;entryY=0.5;entryDx=0;entryDy=0;" edge="1" parent="WIyWlLk6GJQsqaUBKTNV-1" source="DJIE9ovX9oFqi-QRtO37-16" target="DJIE9ovX9oFqi-QRtO37-7">
          <mxGeometry relative="1" as="geometry" />
        </mxCell>
        <mxCell id="DJIE9ovX9oFqi-QRtO37-16" value="데이터 베이스" style="rounded=0;whiteSpace=wrap;html=1;" vertex="1" parent="WIyWlLk6GJQsqaUBKTNV-1">
          <mxGeometry x="400" y="490" width="120" height="60" as="geometry" />
        </mxCell>
        <mxCell id="DJIE9ovX9oFqi-QRtO37-50" style="edgeStyle=orthogonalEdgeStyle;rounded=0;orthogonalLoop=1;jettySize=auto;html=1;exitX=0;exitY=1;exitDx=0;exitDy=0;entryX=1;entryY=0.5;entryDx=0;entryDy=0;" edge="1" parent="WIyWlLk6GJQsqaUBKTNV-1" source="DJIE9ovX9oFqi-QRtO37-17" target="DJIE9ovX9oFqi-QRtO37-16">
          <mxGeometry relative="1" as="geometry" />
        </mxCell>
        <mxCell id="DJIE9ovX9oFqi-QRtO37-17" value="사용자 성향" style="rounded=0;whiteSpace=wrap;html=1;" vertex="1" parent="WIyWlLk6GJQsqaUBKTNV-1">
          <mxGeometry x="540" y="490" width="120" height="30" as="geometry" />
        </mxCell>
        <mxCell id="DJIE9ovX9oFqi-QRtO37-18" value="날씨 데이터" style="rounded=0;whiteSpace=wrap;html=1;" vertex="1" parent="WIyWlLk6GJQsqaUBKTNV-1">
          <mxGeometry x="540" y="520" width="120" height="30" as="geometry" />
        </mxCell>
        <mxCell id="DJIE9ovX9oFqi-QRtO37-19" value="주행 성향, 선호 경로" style="rounded=0;whiteSpace=wrap;html=1;" vertex="1" parent="WIyWlLk6GJQsqaUBKTNV-1">
          <mxGeometry x="660" y="490" width="120" height="30" as="geometry" />
        </mxCell>
        <mxCell id="DJIE9ovX9oFqi-QRtO37-20" value="비, 눈" style="rounded=0;whiteSpace=wrap;html=1;" vertex="1" parent="WIyWlLk6GJQsqaUBKTNV-1">
          <mxGeometry x="660" y="520" width="120" height="30" as="geometry" />
        </mxCell>
        <mxCell id="DJIE9ovX9oFqi-QRtO37-44" style="edgeStyle=orthogonalEdgeStyle;rounded=0;orthogonalLoop=1;jettySize=auto;html=1;exitX=1;exitY=0.5;exitDx=0;exitDy=0;entryX=0;entryY=0.5;entryDx=0;entryDy=0;" edge="1" parent="WIyWlLk6GJQsqaUBKTNV-1" source="DJIE9ovX9oFqi-QRtO37-23" target="DJIE9ovX9oFqi-QRtO37-7">
          <mxGeometry relative="1" as="geometry" />
        </mxCell>
        <mxCell id="DJIE9ovX9oFqi-QRtO37-45" style="edgeStyle=orthogonalEdgeStyle;rounded=0;orthogonalLoop=1;jettySize=auto;html=1;exitX=1;exitY=0.5;exitDx=0;exitDy=0;entryX=0;entryY=0.5;entryDx=0;entryDy=0;" edge="1" parent="WIyWlLk6GJQsqaUBKTNV-1" source="DJIE9ovX9oFqi-QRtO37-23" target="DJIE9ovX9oFqi-QRtO37-14">
          <mxGeometry relative="1" as="geometry" />
        </mxCell>
        <mxCell id="DJIE9ovX9oFqi-QRtO37-23" value="휠체어 안전 지도" style="rounded=0;whiteSpace=wrap;html=1;" vertex="1" parent="WIyWlLk6GJQsqaUBKTNV-1">
          <mxGeometry x="40" y="458" width="120" height="60" as="geometry" />
        </mxCell>
        <mxCell id="DJIE9ovX9oFqi-QRtO37-27" value="장애물 경고" style="rounded=0;whiteSpace=wrap;html=1;" vertex="1" parent="WIyWlLk6GJQsqaUBKTNV-1">
          <mxGeometry x="334" y="190" width="120" height="60" as="geometry" />
        </mxCell>
        <mxCell id="DJIE9ovX9oFqi-QRtO37-38" style="edgeStyle=orthogonalEdgeStyle;rounded=0;orthogonalLoop=1;jettySize=auto;html=1;exitX=1;exitY=0.5;exitDx=0;exitDy=0;entryX=0;entryY=0.5;entryDx=0;entryDy=0;" edge="1" parent="WIyWlLk6GJQsqaUBKTNV-1" source="DJIE9ovX9oFqi-QRtO37-28" target="DJIE9ovX9oFqi-QRtO37-29">
          <mxGeometry relative="1" as="geometry" />
        </mxCell>
        <mxCell id="DJIE9ovX9oFqi-QRtO37-41" style="edgeStyle=orthogonalEdgeStyle;rounded=0;orthogonalLoop=1;jettySize=auto;html=1;exitX=0.5;exitY=1;exitDx=0;exitDy=0;entryX=0.5;entryY=0;entryDx=0;entryDy=0;" edge="1" parent="WIyWlLk6GJQsqaUBKTNV-1" source="DJIE9ovX9oFqi-QRtO37-28" target="DJIE9ovX9oFqi-QRtO37-6">
          <mxGeometry relative="1" as="geometry" />
        </mxCell>
        <mxCell id="DJIE9ovX9oFqi-QRtO37-28" value="훈련된 장애물 탐지 &lt;br&gt;모델로 검사" style="rounded=0;whiteSpace=wrap;html=1;" vertex="1" parent="WIyWlLk6GJQsqaUBKTNV-1">
          <mxGeometry x="334" y="303" width="120" height="60" as="geometry" />
        </mxCell>
        <mxCell id="DJIE9ovX9oFqi-QRtO37-39" style="edgeStyle=orthogonalEdgeStyle;rounded=0;orthogonalLoop=1;jettySize=auto;html=1;exitX=1;exitY=0.5;exitDx=0;exitDy=0;entryX=0;entryY=0.5;entryDx=0;entryDy=0;" edge="1" parent="WIyWlLk6GJQsqaUBKTNV-1" source="DJIE9ovX9oFqi-QRtO37-29" target="DJIE9ovX9oFqi-QRtO37-30">
          <mxGeometry relative="1" as="geometry" />
        </mxCell>
        <mxCell id="DJIE9ovX9oFqi-QRtO37-42" style="edgeStyle=orthogonalEdgeStyle;rounded=0;orthogonalLoop=1;jettySize=auto;html=1;exitX=0.5;exitY=1;exitDx=0;exitDy=0;entryX=0.5;entryY=0;entryDx=0;entryDy=0;" edge="1" parent="WIyWlLk6GJQsqaUBKTNV-1" source="DJIE9ovX9oFqi-QRtO37-29" target="DJIE9ovX9oFqi-QRtO37-6">
          <mxGeometry relative="1" as="geometry" />
        </mxCell>
        <mxCell id="DJIE9ovX9oFqi-QRtO37-29" value="타 모델로 객체 인식" style="rounded=0;whiteSpace=wrap;html=1;" vertex="1" parent="WIyWlLk6GJQsqaUBKTNV-1">
          <mxGeometry x="470" y="303" width="120" height="60" as="geometry" />
        </mxCell>
        <mxCell id="DJIE9ovX9oFqi-QRtO37-40" style="edgeStyle=orthogonalEdgeStyle;rounded=0;orthogonalLoop=1;jettySize=auto;html=1;exitX=0.5;exitY=0;exitDx=0;exitDy=0;entryX=0.5;entryY=0;entryDx=0;entryDy=0;" edge="1" parent="WIyWlLk6GJQsqaUBKTNV-1" source="DJIE9ovX9oFqi-QRtO37-30" target="DJIE9ovX9oFqi-QRtO37-11">
          <mxGeometry relative="1" as="geometry">
            <Array as="points">
              <mxPoint x="669" y="30" />
              <mxPoint x="90" y="30" />
            </Array>
          </mxGeometry>
        </mxCell>
        <mxCell id="DJIE9ovX9oFqi-QRtO37-30" value="추출된 객체 이미지로 기존 모델 Finetuning" style="rounded=0;whiteSpace=wrap;html=1;" vertex="1" parent="WIyWlLk6GJQsqaUBKTNV-1">
          <mxGeometry x="609" y="303" width="120" height="60" as="geometry" />
        </mxCell>
        <mxCell id="DJIE9ovX9oFqi-QRtO37-52" value="미확인 장애물 객체" style="rounded=0;whiteSpace=wrap;html=1;" vertex="1" parent="WIyWlLk6GJQsqaUBKTNV-1">
          <mxGeometry x="470" y="270" width="120" height="33" as="geometry" />
        </mxCell>
      </root>
    </mxGraphModel>
  </diagram>
</mxfile>
